<svg width="36" height="30" viewBox="0 0 36 30" fill="none" xmlns="http://www.w3.org/2000/svg">
<path d="M20.4688 29.0306C20.3991 28.9609 20.3437 28.8782 20.306 28.7871C20.2682 28.6961 20.2488 28.5985 20.2488 28.4999C20.2488 28.4014 20.2682 28.3038 20.306 28.2127C20.3437 28.1217 20.3991 28.039 20.4688 27.9693L32.6882 15.7499L1.49941 15.7499C1.3005 15.7499 1.10973 15.6709 0.969082 15.5303C0.82843 15.3896 0.749413 15.1988 0.749413 14.9999C0.749413 14.801 0.82843 14.6103 0.969082 14.4696C1.10973 14.3289 1.3005 14.2499 1.49941 14.2499L32.6882 14.2499L20.4688 2.03055C20.3991 1.96087 20.3438 1.87815 20.3061 1.7871C20.2684 1.69606 20.249 1.59847 20.249 1.49993C20.249 1.40138 20.2684 1.3038 20.3061 1.21276C20.3438 1.12171 20.3991 1.03899 20.4688 0.969303C20.5385 0.899621 20.6212 0.844345 20.7122 0.806633C20.8033 0.768921 20.9009 0.749512 20.9994 0.749512C21.098 0.749512 21.1955 0.768921 21.2866 0.806633C21.3776 0.844345 21.4604 0.899621 21.53 0.969303L35.03 14.4693C35.0998 14.539 35.1551 14.6217 35.1928 14.7127C35.2306 14.8038 35.25 14.9014 35.25 14.9999C35.25 15.0985 35.2306 15.1961 35.1928 15.2871C35.1551 15.3782 35.0998 15.4609 35.03 15.5306L21.53 29.0306C21.4604 29.1003 21.3777 29.1556 21.2866 29.1933C21.1956 29.2311 21.098 29.2505 20.9994 29.2505C20.9009 29.2505 20.8033 29.2311 20.7122 29.1933C20.6212 29.1556 20.5384 29.1003 20.4688 29.0306Z" fill="black"/>
</svg>
