<svg width="29" height="24" viewBox="0 0 29 24" fill="none" xmlns="http://www.w3.org/2000/svg">
<path fill-rule="evenodd" clip-rule="evenodd" d="M22.0007 23.8029C23.7346 24.5318 24.3848 23.0046 24.3848 23.0046L28.9724 0.860426C28.9363 -0.632049 26.8412 0.270378 26.8412 0.270378L1.15783 9.95411C1.15783 9.95411 -0.0703469 10.3706 0.0380217 11.0995C0.14639 11.8284 1.12171 12.1755 1.12171 12.1755L7.5877 14.258C7.5877 14.258 9.53833 20.4014 9.93568 21.5815C10.2969 22.7269 10.622 22.7616 10.622 22.7616C10.9832 22.9005 11.3084 22.6575 11.3084 22.6575L15.4986 19.0131L22.0007 23.8029ZM23.1205 4.78256C23.1205 4.78256 24.0236 4.26193 23.9874 4.78256C23.9874 4.78256 24.1319 4.85198 23.6623 5.3379C23.2289 5.75441 13.0061 14.5704 11.6334 15.7505C11.5251 15.8199 11.4528 15.9241 11.4528 16.0629L11.0555 19.3255C10.9832 19.6726 10.5136 19.7073 10.4053 19.3949L8.70749 14.0498C8.63524 13.8415 8.70749 13.5986 8.92422 13.4597L23.1205 4.78256Z" fill="url(#paint0_linear_61_1277)"/>
<defs>
<linearGradient id="paint0_linear_61_1277" x1="38.0595" y1="23.6471" x2="-24.3969" y2="23.3657" gradientUnits="userSpaceOnUse">
<stop/>
<stop offset="1" stop-color="#3A3836"/>
</linearGradient>
</defs>
</svg>
