<svg width="207" height="44" viewBox="0 0 207 44" fill="none" xmlns="http://www.w3.org/2000/svg">
<path d="M179.78 43.8889C177.057 43.8889 174.65 43.4444 172.557 42.5556C170.483 41.6482 168.854 40.2778 167.668 38.4444C166.483 36.6111 165.891 34.2778 165.891 31.4444C165.891 29.1111 166.289 27.1204 167.085 25.4722C167.881 23.8056 168.992 22.4444 170.418 21.3889C171.844 20.3333 173.502 19.5278 175.391 18.9722C177.298 18.4167 179.354 18.0556 181.557 17.8889C183.946 17.7037 185.863 17.4815 187.307 17.2222C188.77 16.9444 189.826 16.5648 190.474 16.0833C191.122 15.5833 191.446 14.9259 191.446 14.1111V14C191.446 12.8889 191.02 12.037 190.168 11.4444C189.317 10.8519 188.224 10.5556 186.891 10.5556C185.428 10.5556 184.233 10.8796 183.307 11.5278C181.683 12.655 180.198 14.4444 178.221 14.4444H175.226C171.082 14.4444 167.724 10.7214 170.03 7.27778C171.511 5.07407 173.668 3.31482 176.502 2C179.335 0.666668 182.872 0 187.113 0C190.168 0 192.909 0.361113 195.335 1.08334C197.761 1.78704 199.826 2.77778 201.53 4.05556C203.233 5.31482 204.53 6.7963 205.418 8.5C206.326 10.1852 206.78 12.0185 206.78 14V36.0556C206.78 40.0136 203.571 43.2222 199.613 43.2222H195.446C193.789 43.2222 192.446 41.8791 192.446 40.2222V37.4307C192.446 37.3155 192.353 37.2222 192.238 37.2222C192.161 37.2222 192.09 37.2647 192.053 37.3322C191.213 38.8742 190.196 40.1245 189.002 41.0833C187.798 42.0648 186.418 42.7778 184.863 43.2222C183.326 43.6667 181.631 43.8889 179.78 43.8889ZM184.78 34.2222C185.946 34.2222 187.039 33.9815 188.057 33.5C189.094 33.0185 189.937 32.3241 190.585 31.4167C191.233 30.5093 191.557 29.4074 191.557 28.1111V25.9443C191.557 25.2816 190.883 24.8258 190.252 25.0278C189.807 25.1759 189.326 25.3148 188.807 25.4444C188.307 25.5741 187.77 25.6944 187.196 25.8056C186.641 25.9167 186.057 26.0185 185.446 26.1111C184.261 26.2963 183.289 26.6019 182.53 27.0278C181.789 27.4352 181.233 27.9444 180.863 28.5556C180.511 29.1482 180.335 29.8148 180.335 30.5556C180.335 31.7407 180.752 32.6482 181.585 33.2778C182.418 33.9074 183.483 34.2222 184.78 34.2222Z" fill="#EBCA00"/>
<path d="M101.038 43.2222C96.8036 43.2222 93.3711 39.7897 93.3711 35.5556V7.83334C93.3711 3.81394 96.6295 0.555554 100.649 0.555554H103.871C106.111 0.555554 107.927 2.37129 107.927 4.61111V8.40838C107.927 8.55103 108.042 8.66667 108.185 8.66667C108.296 8.66667 108.395 8.59527 108.431 8.49024C109.328 5.90673 110.826 3.85442 112.927 2.33333C115.075 0.777777 117.63 0 120.593 0C123.593 0 126.177 0.796296 128.343 2.38889C130.446 3.91646 131.738 5.93237 132.218 8.43661C132.244 8.56918 132.359 8.66667 132.494 8.66667C132.618 8.66667 132.727 8.58337 132.762 8.46399C133.507 5.94706 135.025 3.92202 137.316 2.38889C139.667 0.796296 142.427 0 145.593 0C149.686 0 153.001 1.31482 155.538 3.94445C158.093 6.57408 159.371 10.0741 159.371 14.4444V35.5555C159.371 39.7897 155.939 43.2222 151.704 43.2222C147.47 43.2222 144.038 39.7897 144.038 35.5556V18.3333C144.038 16.463 143.566 15 142.621 13.9444C141.677 12.8704 140.408 12.3333 138.816 12.3333C137.241 12.3333 135.991 12.8704 135.066 13.9444C134.158 15 133.704 16.463 133.704 18.3333V35.8889C133.704 39.939 130.421 43.2222 126.371 43.2222C122.321 43.2222 119.038 39.939 119.038 35.8889V18.3333C119.038 16.463 118.566 15 117.621 13.9444C116.677 12.8704 115.408 12.3333 113.816 12.3333C112.76 12.3333 111.853 12.5741 111.093 13.0556C110.334 13.537 109.741 14.2315 109.316 15.1389C108.908 16.0278 108.704 17.0926 108.704 18.3333V35.5556C108.704 39.7897 105.272 43.2222 101.038 43.2222Z" fill="#EBCA00"/>
<path d="M65.9648 44C61.4093 44 57.4834 43.1296 54.1871 41.3889C50.9093 39.6296 48.3815 37.1111 46.6037 33.8333C44.8445 30.537 43.9648 26.5926 43.9648 22C43.9648 17.5926 44.8537 13.7407 46.6315 10.4444C48.4093 7.14815 50.9185 4.58333 54.1593 2.75C57.4 0.916667 61.2241 0 65.6315 0C68.8537 0 71.7704 0.500003 74.3815 1.5C76.9926 2.5 79.2241 3.9537 81.076 5.86111C82.9278 7.75 84.3537 10.0463 85.3537 12.75C86.3537 15.4537 86.8537 18.5 86.8537 21.8889C86.8537 23.8526 85.2619 25.4444 83.2982 25.4444H52.9648C50.633 25.4444 48.7426 23.5541 48.7426 21.2222C48.7426 18.8904 50.633 17 52.9648 17H69.3379C71.2099 17 72.8293 15.3401 71.7982 13.7778C71.2056 12.8333 70.4 12.1019 69.3815 11.5833C68.3815 11.0463 67.2426 10.7778 65.9648 10.7778C64.7241 10.7778 63.5852 11.0463 62.5482 11.5833C61.5111 12.1019 60.6778 12.8241 60.0482 13.75C59.4371 14.6759 59.113 15.7593 59.076 17V26.1111C59.076 27.4815 59.363 28.7037 59.9371 29.7778C60.5111 30.8519 61.3352 31.6944 62.4093 32.3056C63.4834 32.9167 64.7797 33.2222 66.2982 33.2222C67.3537 33.2222 68.3167 33.0741 69.1871 32.7778C70.076 32.4815 70.8352 32.0556 71.4648 31.5C72.5777 30.4854 73.8526 29.4444 75.3586 29.4444H78.3083C82.7881 29.4444 86.2818 33.7061 83.4371 37.1667C81.6408 39.3333 79.2611 41.0185 76.2982 42.2222C73.3537 43.4074 69.9093 44 65.9648 44Z" fill="#EBCA00"/>
<path d="M6.19603 43.2218C2.77406 43.2218 0 40.4478 0 37.0258C0 35.5732 0.510363 34.1668 1.44193 33.0522L18.6287 12.4895C18.6532 12.4601 18.6667 12.4231 18.6667 12.3849C18.6667 12.2948 18.5937 12.2218 18.5036 12.2218H6.5C3.27834 12.2218 0.666666 9.61017 0.666666 6.38851C0.666666 3.16685 3.27834 0.555176 6.5 0.555176H29.8554C33.6785 0.555176 36.7778 3.65442 36.7778 7.47752C36.7778 9.03885 36.2499 10.5543 35.28 11.7778L19.8134 31.288C19.7903 31.3171 19.7778 31.3532 19.7778 31.3904C19.7778 31.4814 19.8516 31.5552 19.9426 31.5552H31.6111C34.8328 31.5552 37.4444 34.1669 37.4444 37.3885C37.4444 40.6102 34.8328 43.2218 31.6111 43.2218H6.19603Z" fill="#EBCA00"/>
</svg>
