<svg style="display: none" xmlns="http://www.w3.org/2000/svg">
    <symbol width="683.000000" height="683.000000" id="circle" fill="none" viewBox="0 0 683 683">
        <path d="M0 341.5C0 152.89 152.89 0 341.5 0C530.1 0 683 152.89 683 341.5C683 530.1 530.1 683 341.5 683C152.89 683 0 530.1 0 341.5ZM341.5 4.52C155.39 4.52 4.52 155.39 4.52 341.5C4.52 527.6 155.39 678.47 341.5 678.47C527.6 678.47 678.47 527.6 678.47 341.5C678.47 155.39 527.6 4.52 341.5 4.52ZM16.96 341.5C16.96 162.26 162.26 16.96 341.5 16.96C520.73 16.96 666.03 162.26 666.03 341.5C666.03 520.73 520.73 666.03 341.5 666.03C162.26 666.03 16.96 520.73 16.96 341.5ZM341.5 21.48C164.76 21.48 21.48 164.76 21.48 341.5C21.48 518.23 164.76 661.51 341.5 661.51C518.23 661.51 661.51 518.23 661.51 341.5C661.51 164.76 518.23 21.48 341.5 21.48ZM33.92 341.5C33.92 171.63 171.62 33.92 341.5 33.92C511.37 33.92 649.07 171.63 649.07 341.5C649.07 511.37 511.37 649.07 341.5 649.07C171.62 649.07 33.92 511.37 33.92 341.5ZM341.5 38.44C174.12 38.44 38.44 174.12 38.44 341.5C38.44 508.87 174.12 644.55 341.5 644.55C508.87 644.55 644.55 508.87 644.55 341.5C644.55 174.12 508.87 38.44 341.5 38.44ZM50.88 341.5C50.88 180.99 181 50.88 341.5 50.88C502 50.88 632.11 180.99 632.11 341.5C632.11 502 502 632.11 341.5 632.11C181 632.11 50.88 502 50.88 341.5ZM341.5 55.4C183.49 55.4 55.41 183.49 55.41 341.5C55.41 499.5 183.49 627.59 341.5 627.59C499.5 627.59 627.59 499.5 627.59 341.5C627.59 183.49 499.5 55.4 341.5 55.4ZM67.84 341.5C67.84 190.36 190.36 67.84 341.5 67.84C492.63 67.84 615.15 190.36 615.15 341.5C615.15 492.63 492.63 615.15 341.5 615.15C190.36 615.15 67.84 492.63 67.84 341.5ZM341.5 72.37C192.86 72.37 72.37 192.86 72.37 341.5C72.37 490.13 192.86 610.62 341.5 610.62C490.13 610.62 610.62 490.13 610.62 341.5C610.62 192.86 490.13 72.37 341.5 72.37ZM84.8 341.5C84.8 199.73 199.73 84.8 341.5 84.8C483.26 84.8 598.19 199.73 598.19 341.5C598.19 483.26 483.26 598.19 341.5 598.19C199.73 598.19 84.8 483.26 84.8 341.5ZM341.5 89.33C202.23 89.33 89.33 202.23 89.33 341.5C89.33 480.76 202.23 593.66 341.5 593.66C480.77 593.66 593.66 480.76 593.66 341.5C593.66 202.23 480.77 89.33 341.5 89.33ZM101.77 341.5C101.77 209.1 209.1 101.77 341.5 101.77C473.89 101.77 581.22 209.1 581.22 341.5C581.22 473.89 473.89 581.22 341.5 581.22C209.1 581.22 101.77 473.89 101.77 341.5ZM341.5 106.29C211.6 106.29 106.29 211.6 106.29 341.5C106.29 471.4 211.6 576.7 341.5 576.7C471.39 576.7 576.7 471.4 576.7 341.5C576.7 211.6 471.39 106.29 341.5 106.29ZM118.73 341.5C118.73 218.46 218.46 118.73 341.5 118.73C464.53 118.73 564.26 218.46 564.26 341.5C564.26 464.53 464.53 564.26 341.5 564.26C218.46 564.26 118.73 464.53 118.73 341.5ZM341.5 123.25C220.96 123.25 123.25 220.96 123.25 341.5C123.25 462.03 220.96 559.74 341.5 559.74C462.03 559.74 559.74 462.03 559.74 341.5C559.74 220.96 462.03 123.25 341.5 123.25ZM135.69 341.5C135.69 227.83 227.83 135.69 341.5 135.69C455.16 135.69 547.3 227.83 547.3 341.5C547.3 455.16 455.16 547.3 341.5 547.3C227.83 547.3 135.69 455.16 135.69 341.5ZM341.5 140.21C230.33 140.21 140.21 230.33 140.21 341.5C140.21 452.66 230.33 542.78 341.5 542.78C452.66 542.78 542.78 452.66 542.78 341.5C542.78 230.33 452.66 140.21 341.5 140.21ZM152.65 341.5C152.65 237.2 237.2 152.65 341.5 152.65C445.79 152.65 530.34 237.2 530.34 341.5C530.34 445.79 445.79 530.34 341.5 530.34C237.2 530.34 152.65 445.79 152.65 341.5ZM341.5 157.18C239.7 157.18 157.17 239.7 157.17 341.5C157.17 443.29 239.7 525.81 341.5 525.81C443.29 525.81 525.82 443.29 525.82 341.5C525.82 239.7 443.29 157.18 341.5 157.18ZM169.62 341.5C169.62 246.57 246.57 169.61 341.5 169.61C436.42 169.61 513.37 246.57 513.37 341.5C513.37 436.42 436.42 513.38 341.5 513.38C246.57 513.38 169.62 436.42 169.62 341.5ZM341.5 174.14C249.07 174.14 174.14 249.07 174.14 341.5C174.14 433.92 249.07 508.85 341.5 508.85C433.93 508.85 508.85 433.92 508.85 341.5C508.85 249.07 433.93 174.14 341.5 174.14ZM186.58 341.5C186.58 255.94 255.94 186.58 341.5 186.58C427.05 186.58 496.41 255.94 496.41 341.5C496.41 427.06 427.05 496.41 341.5 496.41C255.94 496.41 186.58 427.06 186.58 341.5ZM341.5 191.1C258.43 191.1 191.1 258.43 191.1 341.5C191.1 424.56 258.43 491.89 341.5 491.89C424.56 491.89 491.89 424.56 491.89 341.5C491.89 258.43 424.56 191.1 341.5 191.1ZM203.54 341.5C203.54 265.3 265.3 203.54 341.5 203.54C417.69 203.54 479.45 265.3 479.45 341.5C479.45 417.69 417.69 479.45 341.5 479.45C265.3 479.45 203.54 417.69 203.54 341.5ZM341.5 208.06C267.8 208.06 208.06 267.8 208.06 341.5C208.06 415.19 267.8 474.93 341.5 474.93C415.19 474.93 474.93 415.19 474.93 341.5C474.93 267.8 415.19 208.06 341.5 208.06ZM220.5 341.5C220.5 274.67 274.67 220.5 341.5 220.5C408.32 220.5 462.49 274.67 462.49 341.5C462.49 408.32 408.32 462.49 341.5 462.49C274.67 462.49 220.5 408.32 220.5 341.5ZM341.5 225.02C277.17 225.02 225.02 277.17 225.02 341.5C225.02 405.82 277.17 457.97 341.5 457.97C405.82 457.97 457.97 405.82 457.97 341.5C457.97 277.17 405.82 225.02 341.5 225.02ZM237.46 341.5C237.46 284.04 284.04 237.46 341.5 237.46C398.95 237.46 445.53 284.04 445.53 341.5C445.53 398.95 398.95 445.53 341.5 445.53C284.04 445.53 237.46 398.95 237.46 341.5ZM341.5 241.99C286.54 241.99 241.98 286.54 241.98 341.5C241.98 396.45 286.54 441.01 341.5 441.01C396.45 441.01 441.01 396.45 441.01 341.5C441.01 286.54 396.45 241.99 341.5 241.99Z" fill="#EBCA00" fill-opacity="1.000000" fill-rule="evenodd"/>
    </symbol>

    <symbol id="circle2" fill="none" viewBox="0 0 326 683">
        <path fill-rule="evenodd" clip-rule="evenodd" d="M-15.5 237.467C-72.9559 237.467 -119.533 284.044 -119.533 341.5C-119.533 398.956 -72.9559 445.533 -15.5 445.533C41.9559 445.533 88.5331 398.956 88.5331 341.5C88.5331 284.044 41.9559 237.467 -15.5 237.467ZM-115.01 341.5C-115.01 286.542 -70.4578 241.99 -15.5 241.99C39.4578 241.99 84.0099 286.542 84.0099 341.5C84.0099 396.458 39.4578 441.01 -15.5 441.01C-70.4578 441.01 -115.01 396.458 -115.01 341.5Z" fill="#EBCA00" />
        <path fill-rule="evenodd" clip-rule="evenodd" d="M-15.5 220.505C-82.3237 220.505 -136.495 274.676 -136.495 341.5C-136.495 408.324 -82.3237 462.495 -15.5 462.495C51.3237 462.495 105.495 408.324 105.495 341.5C105.495 274.676 51.3237 220.505 -15.5 220.505ZM-131.972 341.5C-131.972 277.174 -79.8257 225.028 -15.5 225.028C48.8256 225.028 100.972 277.174 100.972 341.5C100.972 405.826 48.8256 457.972 -15.5 457.972C-79.8257 457.972 -131.972 405.826 -131.972 341.5Z" fill="#EBCA00" />
        <path fill-rule="evenodd" clip-rule="evenodd" d="M-153.457 341.5C-153.457 265.308 -91.6915 203.543 -15.5 203.543C60.6915 203.543 122.457 265.308 122.457 341.5C122.457 417.691 60.6915 479.457 -15.5 479.457C-91.6915 479.457 -153.457 417.691 -153.457 341.5ZM-15.5 208.066C-89.1935 208.066 -148.934 267.807 -148.934 341.5C-148.934 415.193 -89.1935 474.934 -15.5 474.934C58.1935 474.934 117.934 415.193 117.934 341.5C117.934 267.807 58.1935 208.066 -15.5 208.066Z" fill="#EBCA00" />
        <path fill-rule="evenodd" clip-rule="evenodd" d="M-170.419 341.5C-170.419 255.941 -101.059 186.581 -15.5 186.581C70.0593 186.581 139.419 255.941 139.419 341.5C139.419 427.059 70.0593 496.419 -15.5 496.419C-101.059 496.419 -170.419 427.059 -170.419 341.5ZM-15.5 191.104C-98.5612 191.104 -165.896 258.439 -165.896 341.5C-165.896 424.561 -98.5612 491.896 -15.5 491.896C67.5612 491.896 134.896 424.561 134.896 341.5C134.896 258.439 67.5612 191.104 -15.5 191.104Z" fill="#EBCA00" />
        <path fill-rule="evenodd" clip-rule="evenodd" d="M-187.381 341.5C-187.381 246.573 -110.427 169.619 -15.5 169.619C79.4271 169.619 156.381 246.573 156.381 341.5C156.381 436.427 79.4271 513.381 -15.5 513.381C-110.427 513.381 -187.381 436.427 -187.381 341.5ZM-15.5 174.142C-107.929 174.142 -182.858 249.071 -182.858 341.5C-182.858 433.929 -107.929 508.858 -15.5 508.858C76.929 508.858 151.858 433.929 151.858 341.5C151.858 249.071 76.929 174.142 -15.5 174.142Z" fill="#EBCA00" />
        <path fill-rule="evenodd" clip-rule="evenodd" d="M-15.5 152.657C-119.795 152.657 -204.343 237.205 -204.343 341.5C-204.343 445.795 -119.795 530.343 -15.5 530.343C88.795 530.343 173.343 445.795 173.343 341.5C173.343 237.205 88.795 152.657 -15.5 152.657ZM-199.82 341.5C-199.82 239.703 -117.297 157.18 -15.5 157.18C86.2968 157.18 168.82 239.703 168.82 341.5C168.82 443.297 86.2968 525.82 -15.5 525.82C-117.297 525.82 -199.82 443.297 -199.82 341.5Z" fill="#EBCA00" />
        <path fill-rule="evenodd" clip-rule="evenodd" d="M-221.305 341.5C-221.305 227.837 -129.163 135.695 -15.5 135.695C98.1628 135.695 190.305 227.837 190.305 341.5C190.305 455.163 98.1628 547.305 -15.5 547.305C-129.163 547.305 -221.305 455.163 -221.305 341.5ZM-15.5 140.219C-126.665 140.219 -216.781 230.335 -216.781 341.5C-216.781 452.665 -126.665 542.781 -15.5 542.781C95.6646 542.781 185.781 452.665 185.781 341.5C185.781 230.335 95.6646 140.219 -15.5 140.219Z" fill="#EBCA00" />
        <path fill-rule="evenodd" clip-rule="evenodd" d="M-15.5 118.733C-138.531 118.733 -238.267 218.469 -238.267 341.5C-238.267 464.531 -138.531 564.267 -15.5 564.267C107.531 564.267 207.267 464.531 207.267 341.5C207.267 218.469 107.531 118.733 -15.5 118.733ZM-233.743 341.5C-233.743 220.967 -136.033 123.257 -15.5 123.257C105.032 123.257 202.743 220.967 202.743 341.5C202.743 462.032 105.032 559.743 -15.5 559.743C-136.033 559.743 -233.743 462.032 -233.743 341.5Z" fill="#EBCA00" />
        <path fill-rule="evenodd" clip-rule="evenodd" d="M-255.228 341.5C-255.228 209.102 -147.898 101.772 -15.5 101.772C116.898 101.772 224.228 209.102 224.228 341.5C224.228 473.898 116.898 581.228 -15.5 581.228C-147.898 581.228 -255.228 473.898 -255.228 341.5ZM-15.5 106.295C-145.4 106.295 -250.705 211.6 -250.705 341.5C-250.705 471.4 -145.4 576.705 -15.5 576.705C114.4 576.705 219.705 471.4 219.705 341.5C219.705 211.6 114.4 106.295 -15.5 106.295Z" fill="#EBCA00" />
        <path fill-rule="evenodd" clip-rule="evenodd" d="M-15.5 84.8096C-157.266 84.8096 -272.19 199.734 -272.19 341.5C-272.19 483.266 -157.266 598.19 -15.5 598.19C126.266 598.19 241.19 483.266 241.19 341.5C241.19 199.734 126.266 84.8096 -15.5 84.8096ZM-267.667 341.5C-267.667 202.232 -154.768 89.3328 -15.5 89.3328C123.768 89.3328 236.667 202.232 236.667 341.5C236.667 480.768 123.768 593.667 -15.5 593.667C-154.768 593.667 -267.667 480.768 -267.667 341.5Z" fill="#EBCA00" />
        <path fill-rule="evenodd" clip-rule="evenodd" d="M-289.152 341.5C-289.152 190.366 -166.634 67.8477 -15.5 67.8477C135.634 67.8477 258.152 190.366 258.152 341.5C258.152 492.634 135.634 615.152 -15.5 615.152C-166.634 615.152 -289.152 492.634 -289.152 341.5ZM-15.5 72.3709C-164.136 72.3709 -284.629 192.864 -284.629 341.5C-284.629 490.136 -164.136 610.629 -15.5 610.629C133.136 610.629 253.629 490.136 253.629 341.5C253.629 192.864 133.136 72.3709 -15.5 72.3709Z" fill="#EBCA00" />
        <path fill-rule="evenodd" clip-rule="evenodd" d="M-15.5 50.8858C-176.002 50.8858 -306.114 180.998 -306.114 341.5C-306.114 502.002 -176.002 632.114 -15.5 632.114C145.002 632.114 275.114 502.002 275.114 341.5C275.114 180.998 145.002 50.8858 -15.5 50.8858ZM-301.591 341.5C-301.591 183.496 -173.504 55.4089 -15.5 55.4089C142.504 55.4089 270.591 183.496 270.591 341.5C270.591 499.504 142.504 627.591 -15.5 627.591C-173.504 627.591 -301.591 499.504 -301.591 341.5Z" fill="#EBCA00" />
        <path fill-rule="evenodd" clip-rule="evenodd" d="M-323.076 341.5C-323.076 171.63 -185.37 33.9238 -15.5 33.9238C154.37 33.9238 292.076 171.63 292.076 341.5C292.076 511.37 154.37 649.076 -15.5 649.076C-185.37 649.076 -323.076 511.37 -323.076 341.5ZM-15.5 38.447C-182.872 38.447 -318.553 174.128 -318.553 341.5C-318.553 508.871 -182.872 644.553 -15.5 644.553C151.871 644.553 287.553 508.871 287.553 341.5C287.553 174.128 151.871 38.447 -15.5 38.447Z" fill="#EBCA00" />
        <path fill-rule="evenodd" clip-rule="evenodd" d="M-15.5 16.9619C-194.737 16.9619 -340.038 162.263 -340.038 341.5C-340.038 520.737 -194.737 666.038 -15.5 666.038C163.737 666.038 309.038 520.737 309.038 341.5C309.038 162.263 163.737 16.9619 -15.5 16.9619ZM-335.515 341.5C-335.515 164.761 -192.239 21.4851 -15.5 21.4851C161.239 21.4851 304.515 164.761 304.515 341.5C304.515 518.239 161.239 661.515 -15.5 661.515C-192.239 661.515 -335.515 518.239 -335.515 341.5Z" fill="#EBCA00" />
        <path fill-rule="evenodd" clip-rule="evenodd" d="M-357 341.5C-357 152.895 -204.105 0 -15.5 0C173.105 0 326 152.895 326 341.5C326 530.105 173.105 683 -15.5 683C-204.105 683 -357 530.105 -357 341.5ZM-15.5 4.52318C-201.607 4.52318 -352.477 155.393 -352.477 341.5C-352.477 527.607 -201.607 678.477 -15.5 678.477C170.607 678.477 321.477 527.607 321.477 341.5C321.477 155.393 170.607 4.52318 -15.5 4.52318Z" fill="#EBCA00" />
    </symbol>

    <symbol id="tie" fill="none" viewBox="0 0 172 113">
        <path d="M168.632 3.09252C168.632 3.09252 138.937 7.83677 122.67 17.2167C91.8831 34.9689 38.5738 76.4123 70.3882 91.7007C98.0592 104.998 122.038 77.9609 117.753 55.519C112.801 29.5896 66.0399 56.2708 39.7756 73.1502C15.794 88.5625 3.92194 109.406 3.92194 109.406" stroke="#EBCA00" stroke-width="6" stroke-linecap="round" />
    </symbol>

    <symbol id="ornament" fill="none" viewBox="0 0 285 30">
        <path fill-rule="evenodd" clip-rule="evenodd" d="M0.732233 25.481C-0.244078 26.4573 -0.244078 28.0402 0.732233 29.0165C1.70854 29.9928 3.29146 29.9928 4.26777 29.0165L29.0165 4.26777C29.9928 3.29146 29.9928 1.70854 29.0165 0.732233C28.0402 -0.244078 26.4573 -0.244077 25.481 0.732233L0.732233 25.481ZM29.0164 25.481C28.0401 26.4573 28.0401 28.0402 29.0164 29.0165C29.9927 29.9928 31.5756 29.9928 32.5519 29.0165L57.3007 4.26777C58.277 3.29146 58.277 1.70854 57.3007 0.732233C56.3244 -0.244078 54.7415 -0.244077 53.7651 0.732233L29.0164 25.481ZM57.3006 29.0165C56.3243 28.0402 56.3243 26.4573 57.3006 25.481L82.0493 0.732233C83.0256 -0.244077 84.6086 -0.244078 85.5849 0.732233C86.5612 1.70854 86.5612 3.29146 85.5849 4.26777L60.8361 29.0165C59.8598 29.9928 58.2769 29.9928 57.3006 29.0165ZM85.5848 25.481C84.6085 26.4573 84.6085 28.0402 85.5848 29.0165C86.5611 29.9928 88.144 29.9928 89.1203 29.0165L113.869 4.26777C114.845 3.29146 114.845 1.70854 113.869 0.732233C112.893 -0.244078 111.31 -0.244077 110.334 0.732233L85.5848 25.481ZM113.869 29.0165C112.893 28.0402 112.893 26.4573 113.869 25.481L138.618 0.732233C139.594 -0.244077 141.177 -0.244078 142.153 0.732233C143.13 1.70854 143.13 3.29146 142.153 4.26777L117.404 29.0165C116.428 29.9928 114.845 29.9928 113.869 29.0165ZM142.153 25.481C141.177 26.4573 141.177 28.0402 142.153 29.0165C143.129 29.9928 144.712 29.9928 145.689 29.0165L170.437 4.26777C171.414 3.29146 171.414 1.70854 170.437 0.732233C169.461 -0.244078 167.878 -0.244077 166.902 0.732233L142.153 25.481ZM170.437 29.0165C169.461 28.0402 169.461 26.4573 170.437 25.481L195.186 0.732233C196.162 -0.244077 197.745 -0.244078 198.722 0.732233C199.698 1.70854 199.698 3.29146 198.722 4.26777L173.973 29.0165C172.997 29.9928 171.414 29.9928 170.437 29.0165ZM198.721 25.481C197.745 26.4573 197.745 28.0402 198.721 29.0165C199.698 29.9928 201.281 29.9928 202.257 29.0165L227.006 4.26777C227.982 3.29146 227.982 1.70854 227.006 0.732233C226.029 -0.244078 224.447 -0.244077 223.47 0.732233L198.721 25.481ZM227.006 29.0165C226.029 28.0402 226.029 26.4573 227.006 25.481L251.754 0.732233C252.731 -0.244077 254.314 -0.244078 255.29 0.732233C256.266 1.70854 256.266 3.29146 255.29 4.26777L230.541 29.0165C229.565 29.9928 227.982 29.9928 227.006 29.0165ZM255.29 25.481C254.314 26.4573 254.314 28.0402 255.29 29.0165C256.266 29.9928 257.849 29.9928 258.825 29.0165L283.574 4.26777C284.55 3.29146 284.55 1.70854 283.574 0.732233C282.598 -0.244078 281.015 -0.244077 280.039 0.732233L255.29 25.481Z" fill="#EBCA00" />
    </symbol>
    
    <symbol id="arrow" fill="none" viewBox="0 0 36 30">
        <path d="M20.4688 29.0306C20.3991 28.9609 20.3437 28.8782 20.306 28.7871C20.2682 28.6961 20.2488 28.5985 20.2488 28.4999C20.2488 28.4014 20.2682 28.3038 20.306 28.2127C20.3437 28.1217 20.3991 28.039 20.4688 27.9693L32.6882 15.7499L1.49941 15.7499C1.3005 15.7499 1.10973 15.6709 0.969082 15.5303C0.82843 15.3896 0.749413 15.1988 0.749413 14.9999C0.749413 14.801 0.82843 14.6103 0.969082 14.4696C1.10973 14.3289 1.3005 14.2499 1.49941 14.2499L32.6882 14.2499L20.4688 2.03055C20.3991 1.96087 20.3438 1.87815 20.3061 1.7871C20.2684 1.69606 20.249 1.59847 20.249 1.49993C20.249 1.40138 20.2684 1.3038 20.3061 1.21276C20.3438 1.12171 20.3991 1.03899 20.4688 0.969303C20.5385 0.899621 20.6212 0.844345 20.7122 0.806633C20.8033 0.768921 20.9009 0.749512 20.9994 0.749512C21.098 0.749512 21.1955 0.768921 21.2866 0.806633C21.3776 0.844345 21.4604 0.899621 21.53 0.969303L35.03 14.4693C35.0998 14.539 35.1551 14.6217 35.1928 14.7127C35.2306 14.8038 35.25 14.9014 35.25 14.9999C35.25 15.0985 35.2306 15.1961 35.1928 15.2871C35.1551 15.3782 35.0998 15.4609 35.03 15.5306L21.53 29.0306C21.4604 29.1003 21.3777 29.1556 21.2866 29.1933C21.1956 29.2311 21.098 29.2505 20.9994 29.2505C20.9009 29.2505 20.8033 29.2311 20.7122 29.1933C20.6212 29.1556 20.5384 29.1003 20.4688 29.0306Z" fill="black"/>
    </symbol>
    
</svg>